<svg width="657.9px" height="122px" xmlns="http://www.w3.org/2000/svg" viewBox="-78.94687499999998 14 657.89375 122" style="background: rgba(0, 0, 0, 0)" preserveAspectRatio="xMidYMid"><defs><linearGradient id="editing-gradient-gradient" x1="0" x2="1" y1="0.5" y2="0.5" gradientUnits="objectBoundingBox"><stop offset="0" stop-color="#c11d07"></stop><stop offset="1" stop-color="#157c7c"></stop></linearGradient></defs><g><g transform="matrix(1.2,0,0,1.4,-15.8,162.2)"><path d="M -16.5 -44.5 L -30.4 -44.5 L -22.3 -86.8 L -8.2 -86.8 L -16.5 -44.5 Z M 39.3 -43.2 L 39.3 -43.2 L 39.3 -43.2 Q 31.5 -43.2 31.5 -49.3 L 31.5 -49.3 L 31.5 -49.3 Q 31.5 -51.9 32.6 -57 L 32.6 -57 L 32.6 -57 Q 33.8 -62.1 34.1 -64.1 L 34.1 -64.1 L 34.1 -64.1 Q 35 -68.8 35 -70.2 L 35 -70.2 L 35 -70.2 Q 35 -73.5 32.6 -73.5 L 32.6 -73.5 L 32.6 -73.5 Q 31 -73.5 29.5 -71.3 L 29.5 -71.3 L 29.5 -71.3 Q 27.9 -69.1 27.2 -64.7 L 27.2 -64.7 L 23.3 -44.5 L 10.8 -43.2 L 14.2 -60.6 L 14.2 -60.6 Q 14.8 -63.5 15.3 -66.8 L 15.3 -66.8 L 15.3 -66.8 Q 15.8 -70.1 15.8 -70.6 L 15.8 -70.6 L 15.8 -70.6 Q 15.8 -73.5 13.7 -73.5 L 13.7 -73.5 L 13.7 -73.5 Q 12.2 -73.5 10.6 -71.3 L 10.6 -71.3 L 10.6 -71.3 Q 9 -69.2 8.1 -64.7 L 8.1 -64.7 L 4.2 -44.5 L -8.4 -43.2 L -1.7 -77.2 L 8.7 -78.4 L 7.6 -72 L 7.6 -72 Q 9.3 -75.4 12.4 -76.9 L 12.4 -76.9 L 12.4 -76.9 Q 15.4 -78.4 20.2 -78.4 L 20.2 -78.4 L 20.2 -78.4 Q 23 -78.4 24.8 -77.1 L 24.8 -77.1 L 24.8 -77.1 Q 26.6 -75.7 27.2 -73.6 L 27.2 -73.6 L 27.2 -73.6 Q 28.2 -75.8 31 -77.1 L 31 -77.1 L 31 -77.1 Q 33.8 -78.4 37.2 -78.4 L 37.2 -78.4 L 37.2 -78.4 Q 40.7 -78.4 42.4 -77.7 L 42.4 -77.7 L 42.4 -77.7 Q 44.1 -77 45.1 -75.7 L 45.1 -75.7 L 45.1 -75.7 Q 46.8 -73.5 46.8 -69.4 L 46.8 -69.4 L 46.8 -69.4 Q 46.8 -65.4 45.1 -57 L 45.1 -57 L 45.1 -57 Q 44.2 -52.9 44.2 -51.4 L 44.2 -51.4 L 44.2 -51.4 Q 44.2 -49.9 45 -49 L 45 -49 L 45 -49 Q 45.9 -48.1 47.2 -48 L 47.2 -48 L 47.2 -48 Q 46.6 -45.8 44.3 -44.5 L 44.3 -44.5 L 44.3 -44.5 Q 42.1 -43.2 39.3 -43.2 Z M 54.9 -46.4 L 54.9 -46.4 L 54.9 -46.4 Q 53.4 -48.1 52.7 -50.7 L 52.7 -50.7 L 52.7 -50.7 Q 52.1 -53.3 52.1 -57.6 L 52.1 -57.6 L 52.1 -57.6 Q 52.1 -61.9 53.5 -65.8 L 53.5 -65.8 L 53.5 -65.8 Q 55 -69.7 57.7 -72.5 L 57.7 -72.5 L 57.7 -72.5 Q 63.2 -78.4 72.3 -78.4 L 72.3 -78.4 L 72.3 -78.4 Q 75.5 -78.4 77.9 -77.3 L 77.9 -77.3 L 88.9 -78.4 L 84.1 -53.5 L 84.1 -53.5 Q 83.9 -52.7 83.9 -51.3 L 83.9 -51.3 L 83.9 -51.3 Q 83.9 -49.9 84.8 -49 L 84.8 -49 L 84.8 -49 Q 85.7 -48.1 86.9 -48 L 86.9 -48 L 86.9 -48 Q 86.3 -45.8 84 -44.5 L 84 -44.5 L 84 -44.5 Q 81.6 -43.2 79 -43.2 L 79 -43.2 L 79 -43.2 Q 76.4 -43.2 74.6 -44.2 L 74.6 -44.2 L 74.6 -44.2 Q 72.9 -45.2 72.3 -46.9 L 72.3 -46.9 L 72.3 -46.9 Q 71.3 -45.3 69.1 -44.3 L 69.1 -44.3 L 69.1 -44.3 Q 67 -43.2 64.1 -43.2 L 64.1 -43.2 L 64.1 -43.2 Q 61.1 -43.2 58.8 -44 L 58.8 -44 L 58.8 -44 Q 56.4 -44.8 54.9 -46.4 Z M 68.4 -72.4 L 68.4 -72.4 L 68.4 -72.4 Q 67.7 -71.3 67 -69.3 L 67 -69.3 L 67 -69.3 Q 66.4 -67.4 65.3 -62.1 L 65.3 -62.1 L 65.3 -62.1 Q 64.3 -56.9 64.3 -53.2 L 64.3 -53.2 L 64.3 -53.2 Q 64.3 -49.5 64.9 -48.4 L 64.9 -48.4 L 64.9 -48.4 Q 65.4 -47.3 66.5 -47.3 L 66.5 -47.3 L 66.5 -47.3 Q 68.5 -47.3 70 -49.3 L 70 -49.3 L 70 -49.3 Q 71.5 -51.2 72.1 -54.7 L 72.1 -54.7 L 75.5 -73.4 L 75.5 -73.4 Q 74.1 -74.6 72.6 -74.6 L 72.6 -74.6 L 72.6 -74.6 Q 71 -74.6 70.1 -74.1 L 70.1 -74.1 L 70.1 -74.1 Q 69.1 -73.6 68.4 -72.4 Z M 96.6 -71.3 L 96.6 -71.3 L 96.6 -71.3 Q 98.8 -74.3 102.1 -76.4 L 102.1 -76.4 L 102.1 -76.4 Q 105.4 -78.4 109.4 -78.4 L 109.4 -78.4 L 109.4 -78.4 Q 113.4 -78.4 115.4 -77.2 L 115.4 -77.2 L 127.9 -78.4 L 123.5 -53.9 L 123.5 -53.9 Q 121.3 -41.3 116.6 -36.4 L 116.6 -36.4 L 116.6 -36.4 Q 112 -31.7 103.2 -31.7 L 103.2 -31.7 L 103.2 -31.7 Q 96.5 -31.7 92.6 -33.8 L 92.6 -33.8 L 92.6 -33.8 Q 88.8 -35.9 88.8 -39.5 L 88.8 -39.5 L 88.8 -39.5 Q 88.8 -42.1 90.8 -43.6 L 90.8 -43.6 L 90.8 -43.6 Q 92.8 -45.1 95.8 -45.1 L 95.8 -45.1 L 95.8 -45.1 Q 98.5 -45.1 100.6 -43.9 L 100.6 -43.9 L 100.6 -43.9 Q 101.8 -43.2 102.4 -42.3 L 102.4 -42.3 L 102.4 -42.3 Q 100.9 -41.1 100.9 -38.9 L 100.9 -38.9 L 100.9 -38.9 Q 100.9 -36.2 103.4 -36.2 L 103.4 -36.2 L 103.4 -36.2 Q 107.7 -36.2 110.2 -46.3 L 110.2 -46.3 L 110.2 -46.3 Q 110.9 -49.1 111.4 -51.8 L 111.4 -51.8 L 111.4 -51.8 Q 108.6 -48.3 102 -48.3 L 102 -48.3 L 102 -48.3 Q 97.5 -48.3 94.9 -50.5 L 94.9 -50.5 L 94.9 -50.5 Q 92.2 -52.6 92.2 -57.8 L 92.2 -57.8 L 92.2 -57.8 Q 92.2 -61 93.3 -64.6 L 93.3 -64.6 L 93.3 -64.6 Q 94.4 -68.2 96.6 -71.3 Z M 104.9 -57.6 L 104.9 -57.6 L 104.9 -57.6 Q 104.9 -53.2 107.2 -53.2 L 107.2 -53.2 L 107.2 -53.2 Q 108.7 -53.2 110.2 -54.9 L 110.2 -54.9 L 110.2 -54.9 Q 111.3 -56.2 111.8 -58.2 L 111.8 -58.2 L 115 -74.7 L 115 -74.7 Q 114.7 -74.7 114.4 -74.9 L 114.4 -74.9 L 114.4 -74.9 Q 113.8 -75.1 112.9 -75.1 L 112.9 -75.1 L 112.9 -75.1 Q 109 -75.1 106.7 -68.7 L 106.7 -68.7 L 106.7 -68.7 Q 104.9 -63.7 104.9 -57.6 Z M 156.3 -55.3 L 156.3 -55.3 L 156.3 -55.3 Q 157.9 -54.2 157.9 -51.8 L 157.9 -51.8 L 157.9 -51.8 Q 157.9 -49.4 156.7 -47.9 L 156.7 -47.9 L 156.7 -47.9 Q 155.5 -46.4 153.5 -45.3 L 153.5 -45.3 L 153.5 -45.3 Q 149.4 -43.2 145 -43.2 L 145 -43.2 L 145 -43.2 Q 140.6 -43.2 138 -44.2 L 138 -44.2 L 138 -44.2 Q 135.4 -45.2 133.7 -46.9 L 133.7 -46.9 L 133.7 -46.9 Q 130.3 -50.3 130.3 -56.5 L 130.3 -56.5 L 130.3 -56.5 Q 130.3 -66.2 135.5 -72.1 L 135.5 -72.1 L 135.5 -72.1 Q 141.1 -78.4 150.9 -78.4 L 150.9 -78.4 L 150.9 -78.4 Q 157 -78.4 160 -75.9 L 160 -75.9 L 160 -75.9 Q 162.3 -74 162.3 -70.8 L 162.3 -70.8 L 162.3 -70.8 Q 162.3 -59.6 142.8 -59.6 L 142.8 -59.6 L 142.8 -59.6 Q 142.6 -57.9 142.6 -56.5 L 142.6 -56.5 L 142.6 -56.5 Q 142.6 -53.5 143.9 -52.4 L 143.9 -52.4 L 143.9 -52.4 Q 145.2 -51.3 147.6 -51.3 L 147.6 -51.3 L 147.6 -51.3 Q 150 -51.3 152.6 -52.4 L 152.6 -52.4 L 152.6 -52.4 Q 155.2 -53.5 156.3 -55.3 Z M 143.3 -62.3 L 143.3 -62.3 L 143.3 -62.3 Q 147.8 -62.3 150.4 -65.1 L 150.4 -65.1 L 150.4 -65.1 Q 153 -67.8 153 -72.1 L 153 -72.1 L 153 -72.1 Q 153 -73.6 152.5 -74.4 L 152.5 -74.4 L 152.5 -74.4 Q 152 -75.2 150.9 -75.2 L 150.9 -75.2 L 150.9 -75.2 Q 149.8 -75.2 148.9 -74.8 L 148.9 -74.8 L 148.9 -74.8 Q 147.9 -74.3 147 -72.9 L 147 -72.9 L 147 -72.9 Q 144.6 -69.7 143.3 -62.3 Z M 183.6 -67 L 183.6 -67 L 183.6 -67 Q 184.5 -69.3 184.5 -71.4 L 184.5 -71.4 L 184.5 -71.4 Q 184.5 -75.2 181.4 -75.2 L 181.4 -75.2 L 181.4 -75.2 Q 179.8 -75.2 178.5 -73.7 L 178.5 -73.7 L 178.5 -73.7 Q 177.2 -72.3 177.2 -70.5 L 177.2 -70.5 L 177.2 -70.5 Q 177.2 -69.2 178.2 -68.2 L 178.2 -68.2 L 178.2 -68.2 Q 179.7 -66.8 183.4 -64.5 L 183.4 -64.5 L 183.4 -64.5 Q 187.2 -62.2 188.7 -60.3 L 188.7 -60.3 L 188.7 -60.3 Q 190.1 -58.4 190.1 -55.8 L 190.1 -55.8 L 190.1 -55.8 Q 190.1 -53.2 188.9 -50.9 L 188.9 -50.9 L 188.9 -50.9 Q 187.6 -48.5 185.4 -46.8 L 185.4 -46.8 L 185.4 -46.8 Q 180.6 -43.2 172.9 -43.2 L 172.9 -43.2 L 172.9 -43.2 Q 168.7 -43.2 165.5 -45.4 L 165.5 -45.4 L 165.5 -45.4 Q 162.3 -47.5 162.3 -50 L 162.3 -50 L 162.3 -50 Q 162.3 -52.5 164.2 -54 L 164.2 -54 L 164.2 -54 Q 166 -55.5 168.7 -55.5 L 168.7 -55.5 L 168.7 -55.5 Q 171.4 -55.5 173 -54.4 L 173 -54.4 L 173 -54.4 Q 172.2 -52.3 172.2 -50.9 L 172.2 -50.9 L 172.2 -50.9 Q 172.2 -46.7 175.8 -46.7 L 175.8 -46.7 L 175.8 -46.7 Q 177.3 -46.7 178.3 -47.7 L 178.3 -47.7 L 178.3 -47.7 Q 179.4 -48.6 179.4 -50.3 L 179.4 -50.3 L 179.4 -50.3 Q 179.4 -53.5 173.8 -57 L 173.8 -57 L 173.8 -57 Q 169.4 -59.9 168.3 -61.1 L 168.3 -61.1 L 168.3 -61.1 Q 166.6 -63.1 166.6 -65.7 L 166.6 -65.7 L 166.6 -65.7 Q 166.6 -68.3 167.8 -70.7 L 167.8 -70.7 L 167.8 -70.7 Q 169 -73.1 171.3 -74.9 L 171.3 -74.9 L 171.3 -74.9 Q 176 -78.4 184.1 -78.4 L 184.1 -78.4 L 184.1 -78.4 Q 188.2 -78.4 190.7 -76.8 L 190.7 -76.8 L 190.7 -76.8 Q 193.2 -75.1 193.2 -72.3 L 193.2 -72.3 L 193.2 -72.3 Q 193.2 -69.5 191.5 -67.9 L 191.5 -67.9 L 191.5 -67.9 Q 189.8 -66.3 186.7 -66.3 L 186.7 -66.3 L 186.7 -66.3 Q 184.6 -66.3 183.6 -67 Z M 234.6 -65.1 L 247.6 -66.3 L 247.6 -66.3 Q 243 -56.2 243 -44.5 L 243 -44.5 L 243 -44.5 Q 241.2 -43.2 238.7 -43.2 L 238.7 -43.2 L 238.7 -43.2 Q 236.2 -43.2 234.6 -44.4 L 234.6 -44.4 L 234.6 -44.4 Q 233 -45.6 232.7 -46.8 L 232.7 -46.8 L 232.7 -46.8 Q 231.1 -45.2 228.5 -44.2 L 228.5 -44.2 L 228.5 -44.2 Q 225.9 -43.2 223.1 -43.2 L 223.1 -43.2 L 223.1 -43.2 Q 220.4 -43.2 218 -44.1 L 218 -44.1 L 218 -44.1 Q 215.6 -45 213.7 -47 L 213.7 -47 L 213.7 -47 Q 209.6 -51.4 209.6 -59.6 L 209.6 -59.6 L 209.6 -59.6 Q 209.6 -72.4 216.5 -80.1 L 216.5 -80.1 L 216.5 -80.1 Q 223.5 -88 236 -88 L 236 -88 L 236 -88 Q 244.6 -88 247.7 -83.6 L 247.7 -83.6 L 247.7 -83.6 Q 248.7 -82.1 248.7 -80.5 L 248.7 -80.5 L 248.7 -80.5 Q 248.7 -78.8 247.9 -77.3 L 247.9 -77.3 L 247.9 -77.3 Q 247.2 -75.9 246 -74.7 L 246 -74.7 L 246 -74.7 Q 243.3 -72.2 239.9 -72.2 L 239.9 -72.2 L 239.9 -72.2 Q 238.6 -72.2 237.3 -72.6 L 237.3 -72.6 L 237.3 -72.6 Q 237.5 -74.5 237.5 -76.8 L 237.5 -76.8 L 237.5 -76.8 Q 237.5 -79 237.4 -80 L 237.4 -80 L 237.4 -80 Q 237.2 -81.1 236.8 -81.9 L 236.8 -81.9 L 236.8 -81.9 Q 236 -83.6 234.2 -83.6 L 234.2 -83.6 L 234.2 -83.6 Q 232.3 -83.6 230.3 -81.7 L 230.3 -81.7 L 230.3 -81.7 Q 228.3 -79.7 226.7 -76.5 L 226.7 -76.5 L 226.7 -76.5 Q 223.2 -69.3 223.2 -60.7 L 223.2 -60.7 L 223.2 -60.7 Q 223.2 -56.7 224.7 -53.9 L 224.7 -53.9 L 224.7 -53.9 Q 226.4 -50.9 229.3 -50.9 L 229.3 -50.9 L 229.3 -50.9 Q 230.4 -50.9 231.3 -51.4 L 231.3 -51.4 L 231.3 -51.4 Q 232.2 -51.9 232.6 -52.3 L 232.6 -52.3 L 234.6 -65.1 Z M 253.5 -46.4 L 253.5 -46.4 L 253.5 -46.4 Q 252 -48.1 251.3 -50.7 L 251.3 -50.7 L 251.3 -50.7 Q 250.6 -53.3 250.6 -57.6 L 250.6 -57.6 L 250.6 -57.6 Q 250.6 -61.9 252.1 -65.8 L 252.1 -65.8 L 252.1 -65.8 Q 253.6 -69.7 256.3 -72.5 L 256.3 -72.5 L 256.3 -72.5 Q 261.8 -78.4 270.9 -78.4 L 270.9 -78.4 L 270.9 -78.4 Q 274.1 -78.4 276.5 -77.3 L 276.5 -77.3 L 287.4 -78.4 L 282.7 -53.5 L 282.7 -53.5 Q 282.5 -52.7 282.5 -51.3 L 282.5 -51.3 L 282.5 -51.3 Q 282.5 -49.9 283.4 -49 L 283.4 -49 L 283.4 -49 Q 284.2 -48.1 285.5 -48 L 285.5 -48 L 285.5 -48 Q 284.9 -45.8 282.6 -44.5 L 282.6 -44.5 L 282.6 -44.5 Q 280.2 -43.2 277.6 -43.2 L 277.6 -43.2 L 277.6 -43.2 Q 275 -43.2 273.2 -44.2 L 273.2 -44.2 L 273.2 -44.2 Q 271.4 -45.2 270.9 -46.9 L 270.9 -46.9 L 270.9 -46.9 Q 269.9 -45.3 267.7 -44.3 L 267.7 -44.3 L 267.7 -44.3 Q 265.6 -43.2 262.6 -43.2 L 262.6 -43.2 L 262.6 -43.2 Q 259.7 -43.2 257.4 -44 L 257.4 -44 L 257.4 -44 Q 255 -44.8 253.5 -46.4 Z M 267 -72.4 L 267 -72.4 L 267 -72.4 Q 266.3 -71.3 265.6 -69.3 L 265.6 -69.3 L 265.6 -69.3 Q 265 -67.4 263.9 -62.1 L 263.9 -62.1 L 263.9 -62.1 Q 262.9 -56.9 262.9 -53.2 L 262.9 -53.2 L 262.9 -53.2 Q 262.9 -49.5 263.4 -48.4 L 263.4 -48.4 L 263.4 -48.4 Q 264 -47.3 265 -47.3 L 265 -47.3 L 265 -47.3 Q 267.1 -47.3 268.6 -49.3 L 268.6 -49.3 L 268.6 -49.3 Q 270.1 -51.2 270.7 -54.7 L 270.7 -54.7 L 274.1 -73.4 L 274.1 -73.4 Q 272.7 -74.6 271.2 -74.6 L 271.2 -74.6 L 271.2 -74.6 Q 269.6 -74.6 268.7 -74.1 L 268.7 -74.1 L 268.7 -74.1 Q 267.7 -73.6 267 -72.4 Z M 306.2 -48 L 306.2 -48 L 306.2 -48 Q 304.2 -43.2 297.9 -43.2 L 297.9 -43.2 L 297.9 -43.2 Q 294.7 -43.2 292.6 -45.5 L 292.6 -45.5 L 292.6 -45.5 Q 291 -47.3 291 -49.4 L 291 -49.4 L 291 -49.4 Q 291 -54.2 293.2 -64.7 L 293.2 -64.7 L 297.9 -89.3 L 310.9 -90.6 L 304.7 -58.2 L 304.7 -58.2 Q 303.6 -53.5 303.6 -51.8 L 303.6 -51.8 L 303.6 -51.8 Q 303.6 -48.2 306.2 -48 Z M 326.9 -48 L 326.9 -48 L 326.9 -48 Q 325 -43.2 318.6 -43.2 L 318.6 -43.2 L 318.6 -43.2 Q 315.4 -43.2 313.4 -45.5 L 313.4 -45.5 L 313.4 -45.5 Q 311.7 -47.3 311.7 -49.4 L 311.7 -49.4 L 311.7 -49.4 Q 311.7 -54.2 313.9 -64.7 L 313.9 -64.7 L 318.6 -89.3 L 331.6 -90.6 L 325.4 -58.2 L 325.4 -58.2 Q 324.3 -53.5 324.3 -51.8 L 324.3 -51.8 L 324.3 -51.8 Q 324.3 -48.2 326.9 -48 Z M 358.3 -55.3 L 358.3 -55.3 L 358.3 -55.3 Q 359.9 -54.2 359.9 -51.8 L 359.9 -51.8 L 359.9 -51.8 Q 359.9 -49.4 358.7 -47.9 L 358.7 -47.9 L 358.7 -47.9 Q 357.5 -46.4 355.5 -45.3 L 355.5 -45.3 L 355.5 -45.3 Q 351.4 -43.2 347 -43.2 L 347 -43.2 L 347 -43.2 Q 342.6 -43.2 340 -44.2 L 340 -44.2 L 340 -44.2 Q 337.4 -45.2 335.6 -46.9 L 335.6 -46.9 L 335.6 -46.9 Q 332.2 -50.3 332.2 -56.5 L 332.2 -56.5 L 332.2 -56.5 Q 332.2 -66.2 337.5 -72.1 L 337.5 -72.1 L 337.5 -72.1 Q 343.1 -78.4 352.9 -78.4 L 352.9 -78.4 L 352.9 -78.4 Q 359 -78.4 362 -75.9 L 362 -75.9 L 362 -75.9 Q 364.2 -74 364.2 -70.8 L 364.2 -70.8 L 364.2 -70.8 Q 364.2 -59.6 344.8 -59.6 L 344.8 -59.6 L 344.8 -59.6 Q 344.5 -57.9 344.5 -56.5 L 344.5 -56.5 L 344.5 -56.5 Q 344.5 -53.5 345.8 -52.4 L 345.8 -52.4 L 345.8 -52.4 Q 347.2 -51.3 349.6 -51.3 L 349.6 -51.3 L 349.6 -51.3 Q 352 -51.3 354.6 -52.4 L 354.6 -52.4 L 354.6 -52.4 Q 357.2 -53.5 358.3 -55.3 Z M 345.2 -62.3 L 345.2 -62.3 L 345.2 -62.3 Q 349.8 -62.3 352.4 -65.1 L 352.4 -65.1 L 352.4 -65.1 Q 355 -67.8 355 -72.1 L 355 -72.1 L 355 -72.1 Q 355 -73.6 354.5 -74.4 L 354.5 -74.4 L 354.5 -74.4 Q 353.9 -75.2 352.9 -75.2 L 352.9 -75.2 L 352.9 -75.2 Q 351.8 -75.2 350.8 -74.8 L 350.8 -74.8 L 350.8 -74.8 Q 349.9 -74.3 349 -72.9 L 349 -72.9 L 349 -72.9 Q 346.6 -69.7 345.2 -62.3 Z M 386.5 -62.5 L 386.5 -62.5 L 386.5 -62.5 Q 388.8 -66.6 388.8 -70.8 L 388.8 -70.8 L 388.8 -70.8 Q 388.8 -73.5 386.8 -73.5 L 386.8 -73.5 L 386.8 -73.5 Q 385.2 -73.5 383.6 -70.9 L 383.6 -70.9 L 383.6 -70.9 Q 382 -68.3 381.5 -64.9 L 381.5 -64.9 L 378.1 -44.5 L 364.9 -43.2 L 371.4 -77.2 L 382 -78.4 L 380.8 -72 L 380.8 -72 Q 384 -78.4 391 -78.4 L 391 -78.4 L 391 -78.4 Q 394.7 -78.4 396.7 -76.5 L 396.7 -76.5 L 396.7 -76.5 Q 398.7 -74.6 398.7 -70.7 L 398.7 -70.7 L 398.7 -70.7 Q 398.7 -66.7 396.2 -64.2 L 396.2 -64.2 L 396.2 -64.2 Q 393.6 -61.7 389.1 -61.7 L 389.1 -61.7 L 389.1 -61.7 Q 387.2 -61.7 386.5 -62.5 Z M 420.1 -51.7 L 420.1 -51.7 L 420.1 -51.7 Q 416.8 -48.3 410.7 -48.3 L 410.7 -48.3 L 410.7 -48.3 Q 403.1 -48.3 401.5 -53.9 L 401.5 -53.9 L 401.5 -53.9 Q 401 -55.5 401 -57.4 L 401 -57.4 L 401 -57.4 Q 401 -59.2 401.4 -61.2 L 401.4 -61.2 L 404.4 -77.2 L 417.4 -78.4 L 413.8 -59.8 L 413.8 -59.8 Q 413.7 -59 413.5 -58.1 L 413.5 -58.1 L 413.5 -58.1 Q 413.3 -57.2 413.3 -56.3 L 413.3 -56.3 L 413.3 -56.3 Q 413.3 -55.3 413.7 -54.7 L 413.7 -54.7 L 413.7 -54.7 Q 414 -54.1 414.4 -53.7 L 414.4 -53.7 L 414.4 -53.7 Q 415.2 -53.2 416.6 -53.2 L 416.6 -53.2 L 416.6 -53.2 Q 417.9 -53.2 419.1 -54.9 L 419.1 -54.9 L 419.1 -54.9 Q 420.3 -56.5 420.9 -59.4 L 420.9 -59.4 L 424.4 -77.2 L 437 -78.4 L 432.2 -53.3 L 432.2 -53.3 Q 429.8 -41 425 -36.1 L 425 -36.1 L 425 -36.1 Q 422.5 -33.6 419.3 -32.6 L 419.3 -32.6 L 419.3 -32.6 Q 416 -31.7 411.9 -31.7 L 411.9 -31.7 L 411.9 -31.7 Q 405.1 -31.7 401.3 -33.8 L 401.3 -33.8 L 401.3 -33.8 Q 397.5 -35.9 397.5 -39.4 L 397.5 -39.4 L 397.5 -39.4 Q 397.5 -42 399.4 -43.5 L 399.4 -43.5 L 399.4 -43.5 Q 401.4 -45 404.5 -45 L 404.5 -45 L 404.5 -45 Q 407.2 -45 409.2 -43.9 L 409.2 -43.9 L 409.2 -43.9 Q 410.5 -43.2 411 -42.3 L 411 -42.3 L 411 -42.3 Q 409.6 -41 409.6 -38.9 L 409.6 -38.9 L 409.6 -38.9 Q 409.6 -36.1 412.1 -36.1 L 412.1 -36.1 L 412.1 -36.1 Q 416.3 -36.1 418.8 -45.8 L 418.8 -45.8 L 418.8 -45.8 Q 419.5 -48.7 420.1 -51.7 Z" fill="url(#editing-gradient-gradient)"></path></g></g><style>text {
  font-size: 64px;
  font-family: Arial Black;
  dominant-baseline: central;
  text-anchor: middle;
}</style></svg>